<svg version="1.1" id="Layer_1" xmlns="http://www.w3.org/2000/svg" xmlns:xlink="http://www.w3.org/1999/xlink" x="0px" y="0px"
	 width="100%" viewBox="0 0 336 1024" enable-background="new 0 0 336 1024" xml:space="preserve">
<path fill="#000000" opacity="1.000000" stroke="none" 
	d="
M205.013397,654.263306 
	C149.665024,666.655762 91.399529,647.603271 55.277111,598.633240 
	C38.439278,575.806763 29.458345,550.080872 27.602942,521.757385 
	C23.362059,457.018799 62.818859,399.543091 117.815033,378.820129 
	C176.759674,356.609283 229.918060,367.751740 275.342224,411.309174 
	C299.751617,434.715393 312.672668,464.456940 316.309753,498.057312 
	C324.157318,570.555054 276.164368,637.012390 206.854080,653.737183 
	C206.369431,653.854126 205.899582,654.032410 205.013397,654.263306 
M286.844971,474.529968 
	C285.249512,468.708649 282.606842,463.330261 279.904968,457.968964 
	C254.453400,407.466187 196.191040,381.235291 141.665024,395.747162 
	C81.759384,411.690735 43.109173,469.882019 52.519810,531.031067 
	C62.131466,593.486450 117.048050,637.584229 178.919739,633.850647 
	C214.109100,631.727234 243.257950,617.117004 265.348602,589.904480 
	C292.993866,555.849548 299.763000,517.261475 286.844971,474.529968 
z"/>
<path fill="#000000" opacity="1.000000" stroke="none" 
	d="
M158.783386,537.676575 
	C158.770889,541.107239 158.858536,544.111389 158.674454,547.098694 
	C158.015945,557.784851 164.177032,564.516479 175.014481,564.661072 
	C182.843246,564.765442 190.676025,564.785217 198.503754,564.651611 
	C201.756210,564.596069 203.403137,565.439819 203.340729,569.102844 
	C203.117081,582.229553 204.437134,580.254822 192.639008,580.214233 
	C183.835373,580.183899 174.981842,581.135498 166.224136,579.419128 
	C150.219360,576.282349 141.322403,566.765076 141.014404,550.592163 
	C140.535507,525.445496 140.484131,500.276550 140.963486,475.130615 
	C141.300308,457.462006 153.350113,446.434326 171.791656,445.828033 
	C180.612061,445.538055 189.450684,445.846680 198.278122,445.703400 
	C201.836029,445.645660 203.396347,446.845978 203.329636,450.607513 
	C203.108521,463.074097 204.285019,461.166107 193.182343,461.302094 
	C187.019073,461.377594 180.851608,461.213745 174.690781,461.359100 
	C164.225967,461.605988 158.766403,467.759918 158.833420,478.273071 
	C158.958694,497.928528 158.799622,517.585815 158.783386,537.676575 
z"/>
</svg>